<svg viewBox="0 0 32 32" fill="none" xmlns="http://www.w3.org/2000/svg">
  <defs>
    <linearGradient id="fNavy" x1="0%" y1="0%" x2="100%" y2="100%">
      <stop offset="0%" stop-color="#0A1628"/>
      <stop offset="100%" stop-color="#1A2D4A"/>
    </linearGradient>
    <linearGradient id="fCoral" x1="0%" y1="0%" x2="100%" y2="100%">
      <stop offset="0%" stop-color="#FF8F5C"/>
      <stop offset="100%" stop-color="#FF6B35"/>
    </linearGradient>
    <linearGradient id="fMint" x1="0%" y1="100%" x2="100%" y2="0%">
      <stop offset="0%" stop-color="#00B388"/>
      <stop offset="100%" stop-color="#00D9A5"/>
    </linearGradient>
  </defs>

  <!-- Base circular -->
  <circle cx="16" cy="16" r="15" fill="url(#fNavy)"/>

  <!-- Rastros de velocidade -->
  <path d="M5 16 L9 16" stroke="url(#fCoral)" stroke-width="2" stroke-linecap="round"/>
  <path d="M6 13 L8 13" stroke="#FF6B35" stroke-width="1.5" stroke-linecap="round" opacity="0.7"/>
  <path d="M6 19 L8 19" stroke="#FF6B35" stroke-width="1.5" stroke-linecap="round" opacity="0.7"/>

  <!-- Foguete/mensagem -->
  <path d="M11 9 L11 23 L14 23 C17 23, 20 21, 24 18 L26 16 L24 14 C20 11, 17 9, 14 9 L11 9Z" fill="url(#fCoral)"/>

  <!-- Linhas de texto -->
  <rect x="14" y="12" width="6" height="2" rx="1" fill="#0A1628" opacity="0.3"/>
  <rect x="14" y="16" width="4" height="2" rx="1" fill="#0A1628" opacity="0.25"/>

  <!-- Propulsao mint -->
  <ellipse cx="11" cy="16" rx="2.5" ry="5" fill="url(#fMint)"/>
  <ellipse cx="10" cy="16" rx="1.5" ry="3" fill="#00D9A5"/>
</svg>
